<svg width="23" height="23" viewBox="0 0 23 23" fill="none" xmlns="http://www.w3.org/2000/svg">
<path d="M8.63667 21.9307C9.16385 21.9307 9.59122 21.5043 9.59122 20.9784C9.59122 20.4524 9.16385 20.026 8.63667 20.026C8.10949 20.026 7.68213 20.4524 7.68213 20.9784C7.68213 21.5043 8.10949 21.9307 8.63667 21.9307Z" stroke="black" stroke-width="2" stroke-linecap="round" stroke-linejoin="round"/>
<path d="M19.1367 21.9307C19.6639 21.9307 20.0912 21.5043 20.0912 20.9784C20.0912 20.4524 19.6639 20.026 19.1367 20.026C18.6095 20.026 18.1821 20.4524 18.1821 20.9784C18.1821 21.5043 18.6095 21.9307 19.1367 21.9307Z" stroke="black" stroke-width="2" stroke-linecap="round" stroke-linejoin="round"/>
<path d="M1 1.93073H4.81818L7.37636 14.6831C7.46365 15.1216 7.70273 15.5154 8.05175 15.7957C8.40077 16.0761 8.83748 16.225 9.28545 16.2164H18.5636C19.0116 16.225 19.4483 16.0761 19.7973 15.7957C20.1464 15.5154 20.3854 15.1216 20.4727 14.6831L22 6.69262H5.77273" stroke="black" stroke-width="2" stroke-linecap="round" stroke-linejoin="round"/>
</svg>
