<svg width="22" height="21" viewBox="0 0 22 21" fill="none" xmlns="http://www.w3.org/2000/svg">
<path d="M21.0002 10.297L17.1554 14.131L4.87158 1.84716L11.7032 1L21.0002 10.297Z" stroke="black" stroke-width="2" stroke-linecap="round" stroke-linejoin="round"/>
<path d="M15.2391 1.45035L13.7031 2.98633L17.5431 6.82628L19.0791 5.2903L15.2391 1.45035Z" stroke="black" stroke-width="2" stroke-linecap="round" stroke-linejoin="round"/>
<path d="M9.8566 6.84326L1.79771 14.9021C1.54485 15.1544 1.34423 15.454 1.20734 15.7839C1.07046 16.1138 1 16.4674 1 16.8246C1 17.1817 1.07046 17.5353 1.20734 17.8652C1.34423 18.1951 1.54485 18.4947 1.79771 18.747V18.747C2.3099 19.2524 3.00053 19.5357 3.72011 19.5357C4.43969 19.5357 5.13032 19.2524 5.64251 18.747L13.7014 10.6772L9.8566 6.84326Z" stroke="black" stroke-width="2" stroke-linecap="round" stroke-linejoin="round"/>
</svg>
