<svg width="22" height="22" viewBox="0 0 22 22" fill="none" xmlns="http://www.w3.org/2000/svg">
<path d="M16.2381 8H17.1905C18.2008 8 19.1698 8.42143 19.8842 9.17157C20.5986 9.92172 21 10.9391 21 12C21 13.0609 20.5986 14.0783 19.8842 14.8284C19.1698 15.5786 18.2008 16 17.1905 16H16.2381" stroke="black" stroke-width="2" stroke-linecap="round" stroke-linejoin="round"/>
<path d="M1 8H16.2381V17C16.2381 18.0609 15.8367 19.0783 15.1223 19.8284C14.4079 20.5786 13.4389 21 12.4286 21H4.80952C3.79918 21 2.83021 20.5786 2.11578 19.8284C1.40136 19.0783 1 18.0609 1 17V8Z" stroke="black" stroke-width="2" stroke-linecap="round" stroke-linejoin="round"/>
<path d="M4.80951 1V4" stroke="black" stroke-width="2" stroke-linecap="round" stroke-linejoin="round"/>
<path d="M8.61902 1V4" stroke="black" stroke-width="2" stroke-linecap="round" stroke-linejoin="round"/>
<path d="M12.4286 1V4" stroke="black" stroke-width="2" stroke-linecap="round" stroke-linejoin="round"/>
</svg>
