<svg width="22" height="22" viewBox="0 0 22 22" fill="none" xmlns="http://www.w3.org/2000/svg">
<path d="M20.2268 9.07751H16.765V12.5393H20.2268V9.07751Z" stroke="black" stroke-width="2" stroke-linecap="round" stroke-linejoin="round"/>
<path d="M18.5074 1L16.2688 5.46573C16.0774 5.84661 15.9868 6.27023 16.0058 6.69609C16.0248 7.12196 16.1527 7.53584 16.3773 7.89817C16.6018 8.26051 16.9156 8.55919 17.2885 8.76567C17.6615 8.97215 18.0812 9.07953 18.5074 9.07754V9.07754C18.9327 9.07755 19.351 8.96873 19.7223 8.76143C20.0937 8.55414 20.4059 8.25526 20.6291 7.89325C20.8523 7.53123 20.9792 7.11811 20.9976 6.6932C21.0161 6.2683 20.9255 5.84574 20.7345 5.46573L18.5074 1Z" stroke="black" stroke-width="2" stroke-linecap="round" stroke-linejoin="round"/>
<path d="M20.2383 12.5509H16.7765L16.3034 18.2283C16.2761 18.5338 16.3128 18.8416 16.4113 19.1321C16.5098 19.4225 16.6678 19.6893 16.8752 19.9152C17.0827 20.1411 17.335 20.3212 17.616 20.444C17.8971 20.5668 18.2007 20.6297 18.5074 20.6284V20.6284C18.8097 20.6216 19.1073 20.553 19.3821 20.4268C19.6569 20.3006 19.9029 20.1195 20.105 19.8947C20.3072 19.6699 20.4612 19.406 20.5575 19.1194C20.6538 18.8328 20.6905 18.5296 20.6652 18.2283L20.2383 12.5509Z" stroke="black" stroke-width="2" stroke-linecap="round" stroke-linejoin="round"/>
<path d="M7.79886 7.41596C8.59549 7.41596 9.24128 6.77017 9.24128 5.97355C9.24128 5.17692 8.59549 4.53113 7.79886 4.53113C7.00224 4.53113 6.35645 5.17692 6.35645 5.97355C6.35645 6.77017 7.00224 7.41596 7.79886 7.41596Z" fill="black"/>
<path d="M11.6646 6.1927C12.4612 6.1927 13.107 5.5469 13.107 4.75028C13.107 3.95365 12.4612 3.30786 11.6646 3.30786C10.868 3.30786 10.2222 3.95365 10.2222 4.75028C10.2222 5.5469 10.868 6.1927 11.6646 6.1927Z" fill="black"/>
<path d="M5.01792 10.8431C5.81454 10.8431 6.46034 10.1973 6.46034 9.40067C6.46034 8.60404 5.81454 7.95825 5.01792 7.95825C4.22129 7.95825 3.5755 8.60404 3.5755 9.40067C3.5755 10.1973 4.22129 10.8431 5.01792 10.8431Z" fill="black"/>
<path d="M13.7416 1.57697C12.2246 1.06033 10.6036 0.925576 9.02205 1.18464C7.22319 1.49536 5.54981 2.3113 4.1972 3.53723C2.84459 4.76315 1.86856 6.3485 1.38301 8.10824C1.24779 8.49346 1.13604 8.88652 1.04837 9.28525C0.888058 10.3558 1.12938 11.4478 1.72588 12.351C2.32238 13.2543 3.2319 13.905 4.27938 14.1779C5.6059 14.5126 6.84531 15.1277 7.91419 15.9816C8.98308 16.8355 9.85662 17.9085 10.476 19.1283C10.6363 19.4499 10.8952 19.7118 11.2149 19.8758C11.5346 20.0398 11.8984 20.0973 12.2531 20.0399C12.5339 19.9974 12.8115 19.9357 13.0839 19.8553" stroke="black" stroke-width="2" stroke-linecap="round" stroke-linejoin="round"/>
</svg>
