<svg width="56" height="40" viewBox="0 0 56 40" fill="none" xmlns="http://www.w3.org/2000/svg">
<path d="M54.8282 6.12048C54.509 4.93405 53.8837 3.8523 53.015 2.98354C52.1462 2.11478 51.0645 1.48951 49.878 1.17034C45.5103 0 28 0 28 0C28 0 10.4897 0 6.12194 1.17034C4.93551 1.48951 3.85376 2.11478 2.985 2.98354C2.11625 3.8523 1.49097 4.93405 1.1718 6.12048C0.364667 10.5673 -0.0271332 15.0796 0.00146219 19.599C-0.0271656 24.1184 0.364635 28.6306 1.1718 33.0775C1.49097 34.2639 2.11625 35.3456 2.985 36.2144C3.85376 37.0832 4.93551 37.7084 6.12194 38.0276C10.4897 39.1979 28 39.1979 28 39.1979C28 39.1979 45.5103 39.1979 49.878 38.0276C51.0645 37.7084 52.1462 37.0832 53.015 36.2144C53.8837 35.3456 54.509 34.2639 54.8282 33.0775C55.6355 28.6307 56.0273 24.1184 55.9985 19.599C56.0273 15.0796 55.6355 10.5673 54.8282 6.12048" fill="#404040"/>
<path d="M20.9994 10.5986V28.599L35.9997 19.5988L20.9994 10.5986Z" fill="white"/>
</svg>
