<svg width="56" height="56" viewBox="0 0 56 56" fill="none" xmlns="http://www.w3.org/2000/svg">
<g clip-path="url(#clip0_3237_5532)">
<path d="M4.18052e-08 26.88C4.18052e-08 14.2083 0 7.87278 3.93639 3.93366C7.87278 -0.00546334 14.2083 4.18052e-08 26.88 4.18052e-08H29.12C41.7917 4.18052e-08 48.1272 0 52.0663 3.93639C56.0055 7.87278 56 14.2083 56 26.88V29.12C56 41.7917 56 48.1272 52.0636 52.0663C48.1272 56.0055 41.7917 56 29.12 56H26.88C14.2083 56 7.87278 56 3.93366 52.0636C-0.00546334 48.1272 4.18052e-08 41.7917 4.18052e-08 29.12V26.88Z" fill="#404040"/>
<path d="M29.7968 40.344C17.0308 40.344 9.75357 31.5937 9.45035 17.0337H15.8439C16.0536 27.7201 20.7671 32.2473 24.5007 33.1801V17.0337H30.5207V26.2532C34.2085 25.8564 38.08 21.6564 39.3871 17.0337H45.4071C44.4039 22.7273 40.2039 26.9273 37.2175 28.6537C39.5519 29.8129 41.6138 31.4544 43.2667 33.4696C44.9197 35.4849 46.1262 37.8279 46.8064 40.344H40.1821C38.7588 35.9105 35.2124 32.4808 30.5227 32.0123V40.344H29.7968Z" fill="white"/>
</g>
<defs>
<clipPath id="clip0_3237_5532">
<rect width="56" height="56" fill="white"/>
</clipPath>
</defs>
</svg>
