<svg width="80" height="80" viewBox="0 0 80 80" fill="none" xmlns="http://www.w3.org/2000/svg">
<rect width="80" height="80" rx="40" fill="#404040" fill-opacity="0.8"/>
<path d="M52.5384 38.0831C52.8959 38.2976 53.192 38.6019 53.3975 38.9662C53.6031 39.3304 53.7112 39.7422 53.7112 40.1611C53.7112 40.58 53.6031 40.9917 53.3975 41.356C53.192 41.7202 52.8959 42.0245 52.5384 42.2391L34.6365 52.981C34.2716 53.2004 33.8554 53.3184 33.4304 53.3232C33.0054 53.3279 32.5867 53.2191 32.2171 53.0079C31.8475 52.7967 31.5401 52.4907 31.3263 52.121C31.1124 51.7512 30.9999 51.3311 31 50.9033V29.4194C31 28.9918 31.1125 28.5719 31.3262 28.2024C31.5399 27.8329 31.847 27.527 32.2164 27.3158C32.5858 27.1046 33.0041 26.9957 33.4289 27.0001C33.8537 27.0046 34.2697 27.1223 34.6346 27.3412L52.5384 38.0831Z" fill="white"/>
</svg>
