<svg width="20" height="20" viewBox="0 0 20 20" fill="none" xmlns="http://www.w3.org/2000/svg">
<circle cx="10" cy="10" r="10" fill="#CAA381"/>
<path d="M8.885 11.335V10.711C8.885 10.3643 8.95867 10.048 9.106 9.762C9.25333 9.476 9.431 9.23767 9.639 9.047C9.847 8.85633 10.055 8.67433 10.263 8.501C10.471 8.319 10.6487 8.11967 10.796 7.903C10.9433 7.67767 11.017 7.43933 11.017 7.188C11.017 6.88467 10.8957 6.629 10.653 6.421C10.4103 6.213 10.1113 6.109 9.756 6.109C9.27933 6.109 8.82 6.291 8.378 6.655L7.455 5.524C8.11367 4.9 8.92833 4.588 9.899 4.588C10.6703 4.588 11.3377 4.81333 11.901 5.264C12.4643 5.706 12.746 6.29533 12.746 7.032C12.746 7.43067 12.668 7.79033 12.512 8.111C12.356 8.43167 12.1653 8.696 11.94 8.904C11.7147 9.112 11.4893 9.31133 11.264 9.502C11.0473 9.684 10.861 9.88767 10.705 10.113C10.549 10.3383 10.471 10.5767 10.471 10.828V11.335H8.885ZM8.872 14V12.453H10.471V14H8.872Z" fill="white"/>
</svg>
