<svg width="26" height="22" viewBox="0 0 26 22" fill="none" xmlns="http://www.w3.org/2000/svg">
<path d="M17.3636 21V18.7778C17.3636 17.599 16.9039 16.4686 16.0856 15.6351C15.2672 14.8016 14.1573 14.3333 13 14.3333H5.36364C4.20633 14.3333 3.09642 14.8016 2.27808 15.6351C1.45974 16.4686 1 17.599 1 18.7778V21" stroke="black" stroke-width="2" stroke-linecap="round" stroke-linejoin="round"/>
<path d="M9.18163 9.88889C11.5916 9.88889 13.5453 7.89904 13.5453 5.44444C13.5453 2.98985 11.5916 1 9.18163 1C6.77166 1 4.81799 2.98985 4.81799 5.44444C4.81799 7.89904 6.77166 9.88889 9.18163 9.88889Z" stroke="black" stroke-width="2" stroke-linecap="round" stroke-linejoin="round"/>
<path d="M21.7275 6.55554V13.2222" stroke="black" stroke-width="2" stroke-linecap="round" stroke-linejoin="round"/>
<path d="M25 9.88889H18.4546" stroke="black" stroke-width="2" stroke-linecap="round" stroke-linejoin="round"/>
</svg>
