<svg width="40" height="40" viewBox="0 0 40 40" fill="none" xmlns="http://www.w3.org/2000/svg">
<path d="M20 40C31.0457 40 40 31.0457 40 20C40 8.95431 31.0457 0 20 0C8.95431 0 0 8.95431 0 20C0 31.0457 8.95431 40 20 40Z" fill="#404040"/>
<path d="M10 19.6005C10 15.0752 10 12.8125 11.406 11.4065C12.812 10.0005 15.0747 10.0005 19.6 10.0005H20.4C24.9253 10.0005 27.188 10.0005 28.594 11.4065C30 12.8125 30 15.0752 30 19.6005V20.4005C30 24.9258 30 27.1885 28.594 28.5945C27.188 30.0005 24.9253 30.0005 20.4 30.0005H19.6C15.0747 30.0005 12.812 30.0005 11.406 28.5945C10 27.1885 10 24.9258 10 20.4005V19.6005Z" fill="white"/>
<path d="M20.6427 24.411C16.084 24.411 13.4847 21.283 13.376 16.083H15.6587C15.7334 19.901 17.4167 21.5183 18.75 21.8517V16.083H20.9V19.3757C22.2167 19.2337 23.5994 17.7337 24.066 16.083H26.216C26.0402 16.9389 25.6897 17.7493 25.1865 18.4636C24.6833 19.1779 24.0381 19.7807 23.2914 20.2343C24.1252 20.6486 24.8616 21.2351 25.452 21.9551C26.0424 22.6751 26.4732 23.5122 26.716 24.411H24.3494C24.1315 23.6303 23.6879 22.9314 23.0742 22.402C22.4606 21.8725 21.7042 21.5361 20.9 21.435V24.411H20.6427Z" fill="#404040"/>
</svg>
