<svg width="40" height="40" viewBox="0 0 40 40" fill="none" xmlns="http://www.w3.org/2000/svg">
<path d="M20 40C31.0457 40 40 31.0457 40 20C40 8.95431 31.0457 0 20 0C8.95431 0 0 8.95431 0 20C0 31.0457 8.95431 40 20 40Z" fill="#404040"/>
<path d="M29.582 15.186C29.468 14.7623 29.2447 14.3759 28.9344 14.0656C28.6241 13.7553 28.2378 13.532 27.814 13.418C26.254 13 20 13 20 13C20 13 13.746 13 12.186 13.418C11.7623 13.532 11.3759 13.7553 11.0656 14.0656C10.7554 14.3759 10.532 14.7623 10.418 15.186C10.1298 16.7742 9.98982 18.3858 10 20C9.98981 21.6142 10.1297 23.2258 10.418 24.814C10.532 25.2377 10.7554 25.6241 11.0656 25.9344C11.3759 26.2447 11.7623 26.468 12.186 26.582C13.746 27 20 27 20 27C20 27 26.254 27 27.814 26.582C28.2378 26.468 28.6241 26.2447 28.9344 25.9344C29.2447 25.6241 29.468 25.2377 29.582 24.814C29.8704 23.2258 30.0103 21.6142 30 20C30.0103 18.3858 29.8704 16.7742 29.582 15.186Z" fill="white"/>
<path d="M17.4253 16.8184V23.1824L22.9366 20.0004L17.4253 16.8184Z" fill="#404040"/>
</svg>
